<?xml version="1.0" encoding="UTF-8" standalone="no"?>
<!-- Created with Inkscape (http://www.inkscape.org/) -->

<svg
   xmlns:dc="http://purl.org/dc/elements/1.1/"
   xmlns:cc="http://creativecommons.org/ns#"
   xmlns:rdf="http://www.w3.org/1999/02/22-rdf-syntax-ns#"
   xmlns:svg="http://www.w3.org/2000/svg"
   xmlns="http://www.w3.org/2000/svg"
   xmlns:sodipodi="http://sodipodi.sourceforge.net/DTD/sodipodi-0.dtd"
   xmlns:inkscape="http://www.inkscape.org/namespaces/inkscape"
   id="svg8"
   version="1.1"
   viewBox="0 0 210 297"
   height="297mm"
   width="210mm"
   inkscape:version="0.92.2 (unknown)"
   sodipodi:docname="margin_compute.svg"
   inkscape:export-filename="/home/kaiyuzh/Documents/UW/CSE/CourseNotes/446/figs/margin_compute.png"
   inkscape:export-xdpi="300"
   inkscape:export-ydpi="300">
  <sodipodi:namedview
     inkscape:window-maximized="1"
     inkscape:window-y="1074"
     inkscape:window-x="0"
     inkscape:window-height="1056"
     inkscape:window-width="1920"
     showgrid="false"
     inkscape:current-layer="layer1"
     inkscape:document-units="mm"
     inkscape:cy="820.53393"
     inkscape:cx="494.31159"
     inkscape:zoom="2.8"
     inkscape:pageshadow="2"
     inkscape:pageopacity="0.0"
     borderopacity="1.0"
     bordercolor="#666666"
     pagecolor="#ffffff"
     id="base" />
  <defs
     id="defs2">
    <marker
       inkscape:stockid="Arrow2Send"
       orient="auto"
       refY="0.0"
       refX="0.0"
       id="marker3619"
       style="overflow:visible;"
       inkscape:isstock="true">
      <path
         id="path3617"
         style="fill-rule:evenodd;stroke-width:0.625;stroke-linejoin:round;stroke:#000000;stroke-opacity:1;fill:#000000;fill-opacity:1"
         d="M 8.7185878,4.0337352 L -2.2072895,0.016013256 L 8.7185884,-4.0017078 C 6.9730900,-1.6296469 6.9831476,1.6157441 8.7185878,4.0337352 z "
         transform="scale(0.3) rotate(180) translate(-2.3,0)" />
    </marker>
    <marker
       inkscape:collect="always"
       inkscape:isstock="true"
       style="overflow:visible;"
       id="marker3127"
       refX="0.0"
       refY="0.0"
       orient="auto"
       inkscape:stockid="Arrow2Send">
      <path
         transform="scale(0.3) rotate(180) translate(-2.3,0)"
         d="M 8.7185878,4.0337352 L -2.2072895,0.016013256 L 8.7185884,-4.0017078 C 6.9730900,-1.6296469 6.9831476,1.6157441 8.7185878,4.0337352 z "
         style="fill-rule:evenodd;stroke-width:0.625;stroke-linejoin:round;stroke:#000000;stroke-opacity:1;fill:#000000;fill-opacity:1"
         id="path3125" />
    </marker>
    <marker
       inkscape:collect="always"
       inkscape:stockid="Arrow2Send"
       orient="auto"
       refY="0.0"
       refX="0.0"
       id="marker1459"
       style="overflow:visible;"
       inkscape:isstock="true">
      <path
         id="path1457"
         style="fill-rule:evenodd;stroke-width:0.625;stroke-linejoin:round;stroke:#000000;stroke-opacity:1;fill:#000000;fill-opacity:1"
         d="M 8.7185878,4.0337352 L -2.2072895,0.016013256 L 8.7185884,-4.0017078 C 6.9730900,-1.6296469 6.9831476,1.6157441 8.7185878,4.0337352 z "
         transform="scale(0.3) rotate(180) translate(-2.3,0)" />
    </marker>
    <marker
       inkscape:collect="always"
       inkscape:isstock="true"
       style="overflow:visible;"
       id="Arrow2Send"
       refX="0.0"
       refY="0.0"
       orient="auto"
       inkscape:stockid="Arrow2Send">
      <path
         transform="scale(0.3) rotate(180) translate(-2.3,0)"
         d="M 8.7185878,4.0337352 L -2.2072895,0.016013256 L 8.7185884,-4.0017078 C 6.9730900,-1.6296469 6.9831476,1.6157441 8.7185878,4.0337352 z "
         style="fill-rule:evenodd;stroke-width:0.625;stroke-linejoin:round;stroke:#000000;stroke-opacity:1;fill:#000000;fill-opacity:1"
         id="path1088" />
    </marker>
    <marker
       inkscape:isstock="true"
       style="overflow:visible"
       id="DotS"
       refX="0.0"
       refY="0.0"
       orient="auto"
       inkscape:stockid="DotS">
      <path
         transform="scale(0.2) translate(7.4, 1)"
         style="fill-rule:evenodd;stroke:#000000;stroke-width:1pt;stroke-opacity:1;fill:#000000;fill-opacity:1"
         d="M -2.5,-1.0 C -2.5,1.7600000 -4.7400000,4.0 -7.5,4.0 C -10.260000,4.0 -12.5,1.7600000 -12.5,-1.0 C -12.5,-3.7600000 -10.260000,-6.0 -7.5,-6.0 C -4.7400000,-6.0 -2.5,-3.7600000 -2.5,-1.0 z "
         id="path1122" />
    </marker>
    <marker
       inkscape:isstock="true"
       style="overflow:visible;"
       id="Arrow1Lend"
       refX="0.0"
       refY="0.0"
       orient="auto"
       inkscape:stockid="Arrow1Lend">
      <path
         transform="scale(0.8) rotate(180) translate(12.5,0)"
         style="fill-rule:evenodd;stroke:#000000;stroke-width:1pt;stroke-opacity:1;fill:#000000;fill-opacity:1"
         d="M 0.0,0.0 L 5.0,-5.0 L -12.5,0.0 L 5.0,5.0 L 0.0,0.0 z "
         id="path1058" />
    </marker>
    <marker
       inkscape:stockid="Arrow1Mend"
       orient="auto"
       refY="0"
       refX="0"
       id="marker1337"
       style="overflow:visible"
       inkscape:isstock="true">
      <path
         id="path1335"
         d="M 0,0 5,-5 -12.5,0 5,5 Z"
         style="fill:#000000;fill-opacity:1;fill-rule:evenodd;stroke:#000000;stroke-width:1.00000003pt;stroke-opacity:1"
         transform="matrix(-0.4,0,0,-0.4,-4,0)"
         inkscape:connector-curvature="0" />
    </marker>
    <marker
       inkscape:stockid="Arrow1Mend"
       orient="auto"
       refY="0"
       refX="0"
       id="marker1205"
       style="overflow:visible"
       inkscape:isstock="true">
      <path
         id="path1203"
         d="M 0,0 5,-5 -12.5,0 5,5 Z"
         style="fill:#000000;fill-opacity:1;fill-rule:evenodd;stroke:#000000;stroke-width:1.00000003pt;stroke-opacity:1"
         transform="matrix(-0.4,0,0,-0.4,-4,0)"
         inkscape:connector-curvature="0" />
    </marker>
    <marker
       inkscape:stockid="Arrow1Send"
       orient="auto"
       refY="0"
       refX="0"
       id="marker5423"
       style="overflow:visible"
       inkscape:isstock="true">
      <path
         id="path5421"
         d="M 0,0 5,-5 -12.5,0 5,5 Z"
         style="fill:#000000;fill-opacity:1;fill-rule:evenodd;stroke:#000000;stroke-width:1.00000003pt;stroke-opacity:1"
         transform="matrix(-0.2,0,0,-0.2,-1.2,0)"
         inkscape:connector-curvature="0" />
    </marker>
  </defs>
  <metadata
     id="metadata5">
    <rdf:RDF>
      <cc:Work
         rdf:about="">
        <dc:format>image/svg+xml</dc:format>
        <dc:type
           rdf:resource="http://purl.org/dc/dcmitype/StillImage" />
        <dc:title />
      </cc:Work>
    </rdf:RDF>
  </metadata>
  <g
     id="layer1"
     inkscape:groupmode="layer"
     inkscape:label="Layer 1">
    <path
       style="fill:none;fill-rule:evenodd;stroke:#000000;stroke-width:0.22289944;stroke-linecap:butt;stroke-linejoin:miter;stroke-miterlimit:4;stroke-dasharray:none;stroke-opacity:1;marker-end:url(#marker1337)"
       d="M 63.132081,77.399042 H 136.73223"
       id="path1293"
       inkscape:connector-curvature="0" />
    <path
       inkscape:connector-curvature="0"
       id="path1295"
       d="M 99.932145,114.1991 V 40.598975"
       style="fill:none;fill-rule:evenodd;stroke:#000000;stroke-width:0.22289944;stroke-linecap:butt;stroke-linejoin:miter;stroke-miterlimit:4;stroke-dasharray:none;stroke-opacity:1;marker-end:url(#marker1205)" />
    <text
       xml:space="preserve"
       style="font-style:normal;font-variant:normal;font-weight:normal;font-stretch:normal;font-size:12.6298933px;line-height:125%;font-family:Arial;-inkscape-font-specification:Arial;letter-spacing:0px;word-spacing:0px;fill:#ff0000;fill-opacity:1;stroke:none;stroke-width:0.72170806px;stroke-linecap:butt;stroke-linejoin:miter;stroke-opacity:1"
       x="110.01915"
       y="49.478512"
       id="text1299"><tspan
         sodipodi:role="line"
         id="tspan1297"
         x="110.01915"
         y="49.478512"
         style="fill:#ff0000;stroke-width:0.72170806px">+</tspan></text>
    <text
       xml:space="preserve"
       style="font-style:normal;font-variant:normal;font-weight:normal;font-stretch:normal;font-size:16.26952171px;line-height:125%;font-family:Arial;-inkscape-font-specification:Arial;letter-spacing:0px;word-spacing:0px;fill:#0000ff;fill-opacity:1;stroke:none;stroke-width:0.92968684px;stroke-linecap:butt;stroke-linejoin:miter;stroke-opacity:1"
       x="51.958469"
       y="111.24312"
       id="text1303"
       transform="scale(1.6144075,0.6194223)"><tspan
         sodipodi:role="line"
         id="tspan1301"
         x="51.958469"
         y="111.24312"
         style="fill:#0000ff;stroke-width:0.92968684px">-</tspan></text>
    <text
       id="text1307"
       y="42.007233"
       x="117.96731"
       style="font-style:normal;font-variant:normal;font-weight:normal;font-stretch:normal;font-size:12.6298933px;line-height:125%;font-family:Arial;-inkscape-font-specification:Arial;letter-spacing:0px;word-spacing:0px;fill:#ff0000;fill-opacity:1;stroke:none;stroke-width:0.72170806px;stroke-linecap:butt;stroke-linejoin:miter;stroke-opacity:1"
       xml:space="preserve"><tspan
         style="fill:#ff0000;stroke-width:0.72170806px"
         y="42.007233"
         x="117.96731"
         id="tspan1305"
         sodipodi:role="line">+</tspan></text>
    <text
       xml:space="preserve"
       style="font-style:normal;font-variant:normal;font-weight:normal;font-stretch:normal;font-size:12.6298933px;line-height:125%;font-family:Arial;-inkscape-font-specification:Arial;letter-spacing:0px;word-spacing:0px;fill:#ff0000;fill-opacity:1;stroke:none;stroke-width:0.72170806px;stroke-linecap:butt;stroke-linejoin:miter;stroke-opacity:1"
       x="117.6494"
       y="57.74461"
       id="text1311"><tspan
         sodipodi:role="line"
         id="tspan1309"
         x="117.6494"
         y="57.74461"
         style="fill:#ff0000;stroke-width:0.72170806px">+</tspan></text>
    <text
       id="text1315"
       y="62.672489"
       x="130.6844"
       style="font-style:normal;font-variant:normal;font-weight:normal;font-stretch:normal;font-size:12.6298933px;line-height:125%;font-family:Arial;-inkscape-font-specification:Arial;letter-spacing:0px;word-spacing:0px;fill:#ff0000;fill-opacity:1;stroke:none;stroke-width:0.72170806px;stroke-linecap:butt;stroke-linejoin:miter;stroke-opacity:1"
       xml:space="preserve"><tspan
         style="fill:#ff0000;stroke-width:0.72170806px"
         y="62.672489"
         x="130.6844"
         id="tspan1313"
         sodipodi:role="line">+</tspan></text>
    <text
       transform="scale(1.6144075,0.6194223)"
       id="text1319"
       y="121.76505"
       x="55.306301"
       style="font-style:normal;font-variant:normal;font-weight:normal;font-stretch:normal;font-size:16.26952171px;line-height:125%;font-family:Arial;-inkscape-font-specification:Arial;letter-spacing:0px;word-spacing:0px;fill:#0000ff;fill-opacity:1;stroke:none;stroke-width:0.92968684px;stroke-linecap:butt;stroke-linejoin:miter;stroke-opacity:1"
       xml:space="preserve"><tspan
         style="fill:#0000ff;stroke-width:0.92968684px"
         y="121.76505"
         x="55.306301"
         id="tspan1317"
         sodipodi:role="line">-</tspan></text>
    <text
       xml:space="preserve"
       style="font-style:normal;font-variant:normal;font-weight:normal;font-stretch:normal;font-size:16.26952171px;line-height:125%;font-family:Arial;-inkscape-font-specification:Arial;letter-spacing:0px;word-spacing:0px;fill:#0000ff;fill-opacity:1;stroke:none;stroke-width:0.92968684px;stroke-linecap:butt;stroke-linejoin:miter;stroke-opacity:1"
       x="52.549263"
       y="137.93283"
       id="text1323"
       transform="scale(1.6144075,0.6194223)"><tspan
         sodipodi:role="line"
         id="tspan1321"
         x="52.549263"
         y="137.93283"
         style="fill:#0000ff;stroke-width:0.92968684px">-</tspan></text>
    <text
       transform="scale(1.6144075,0.6194223)"
       id="text1327"
       y="142.55222"
       x="62.691227"
       style="font-style:normal;font-variant:normal;font-weight:normal;font-stretch:normal;font-size:16.26952171px;line-height:125%;font-family:Arial;-inkscape-font-specification:Arial;letter-spacing:0px;word-spacing:0px;fill:#0000ff;fill-opacity:1;stroke:none;stroke-width:0.92968684px;stroke-linecap:butt;stroke-linejoin:miter;stroke-opacity:1"
       xml:space="preserve"><tspan
         style="fill:#0000ff;stroke-width:0.92968684px"
         y="142.55222"
         x="62.691227"
         id="tspan1325"
         sodipodi:role="line">-</tspan></text>
    <text
       xml:space="preserve"
       style="font-style:normal;font-variant:normal;font-weight:normal;font-stretch:normal;font-size:12.6298933px;line-height:125%;font-family:Arial;-inkscape-font-specification:Arial;letter-spacing:0px;word-spacing:0px;fill:#ff0000;fill-opacity:1;stroke:none;stroke-width:0.72170806px;stroke-linecap:butt;stroke-linejoin:miter;stroke-opacity:1"
       x="123.49016"
       y="75.302292"
       id="text1331"><tspan
         sodipodi:role="line"
         id="tspan1329"
         x="123.49016"
         y="75.302292"
         style="fill:#ff0000;stroke-width:0.72170806px">+</tspan></text>
    <path
       style="fill:#008000;fill-rule:evenodd;stroke:#008000;stroke-width:0.72757751;stroke-linecap:butt;stroke-linejoin:miter;stroke-miterlimit:4;stroke-dasharray:0.72757751, 0.72757751;stroke-dashoffset:0;stroke-opacity:1"
       d="m 86.70117,41.386011 46.96825,57.719331"
       id="path1333"
       inkscape:connector-curvature="0" />
    <path
       style="fill:none;fill-rule:evenodd;stroke:#000000;stroke-width:0.65499997;stroke-linecap:butt;stroke-linejoin:miter;stroke-miterlimit:4;stroke-dasharray:2.61999991, 2.61999991;stroke-dashoffset:0;stroke-opacity:1"
       d="M 105.71574,64.419099 120.97648,53.278075"
       id="path5395"
       inkscape:connector-curvature="0"
       sodipodi:nodetypes="cc" />
    <g
       id="g1271"
       transform="matrix(1.2110564,0,0,1.2110564,-31.067245,-22.143057)">
      <path
         id="path4930"
         d="m 123.70248,102.93894 0.002,-0.009 0.002,-0.0104 0.003,-0.0103 0.003,-0.0113 0.003,-0.0113 0.003,-0.0113 0.006,-0.0226 0.006,-0.0235 0.006,-0.0235 0.006,-0.0235 0.006,-0.0226 0.003,-0.0113 0.003,-0.0113 0.002,-0.0103 0.003,-0.0103 0.003,-0.009 0.002,-0.009 0.002,-0.009 0.002,-0.008 0.002,-0.008 9.4e-4,-0.008 0.002,-0.007 9.4e-4,-0.006 9.4e-4,-0.006 9.4e-4,-0.005 v -0.004 -0.003 c 0,-0.0846 -0.0658,-0.12693 -0.1354,-0.12693 -0.0564,0 -0.14104,0.0376 -0.17395,0.13163 -0.0141,0.032 -0.23412,0.92711 -0.26703,1.0484 -0.032,0.14104 -0.0423,0.22473 -0.0423,0.30935 0,0.0517 0,0.0611 0.005,0.0846 -0.10719,0.24823 -0.24823,0.39304 -0.43065,0.39304 -0.37422,0 -0.37422,-0.34602 -0.37422,-0.42595 0,-0.15044 0.0235,-0.33285 0.24353,-0.90923 0.0508,-0.1401 0.0799,-0.20592 0.0799,-0.29901 0,-0.21156 -0.15514,-0.38457 -0.38457,-0.38457 -0.44474,0 -0.61775,0.67981 -0.61775,0.72119 0,0.047 0.0461,0.047 0.0555,0.047 0.047,0 0.0517,-0.009 0.0752,-0.0846 0.126,-0.43535 0.30935,-0.58015 0.47296,-0.58015 0.0423,0 0.11753,0.005 0.11753,0.15421 0,0.11753 -0.0517,0.24823 -0.0846,0.32815 -0.20592,0.55288 -0.26234,0.7682 -0.26234,0.94591 0,0.42594 0.31405,0.59048 0.66477,0.59048 0.0799,0 0.29995,0 0.48706,-0.32815 0.12223,0.29995 0.44475,0.32815 0.58579,0.32815 0.35072,0 0.55757,-0.29524 0.67887,-0.57638 0.15984,-0.36482 0.30935,-0.99292 0.30935,-1.21764 0,-0.25764 -0.12694,-0.32816 -0.20592,-0.32816 -0.11754,0 -0.23413,0.12224 -0.23413,0.22567 0,0.0602 0.0282,0.0884 0.0696,0.12599 0.0527,0.0517 0.16925,0.17301 0.16925,0.39773 0,0.15891 -0.1354,0.6187 -0.25763,0.85753 -0.12224,0.24823 -0.28585,0.41184 -0.51527,0.41184 -0.22002,0 -0.34602,-0.1401 -0.34602,-0.40714 0,-0.13164 0.032,-0.27644 0.0508,-0.34226 z"
         inkscape:connector-curvature="0"
         style="font-style:normal;font-variant:normal;font-weight:normal;font-stretch:normal;letter-spacing:normal;word-spacing:normal;text-anchor:start;fill:#000000;fill-opacity:1;fill-rule:evenodd;stroke:#000000;stroke-width:0;stroke-linecap:butt;stroke-linejoin:miter;stroke-miterlimit:10.43299961;stroke-dasharray:none;stroke-dashoffset:0;stroke-opacity:1" />
      <path
         id="path4932"
         d="m 126.95016,103.35642 v -0.0132 l -9.4e-4,-0.0122 -0.002,-0.0122 -0.002,-0.0122 -0.003,-0.0122 -0.004,-0.0113 -0.004,-0.0122 -0.005,-0.0113 -0.005,-0.0103 -0.006,-0.0113 -0.006,-0.0103 -0.007,-0.009 -0.008,-0.0103 -0.007,-0.009 -0.008,-0.008 -0.008,-0.009 -0.008,-0.008 -0.008,-0.008 -0.009,-0.008 -0.0104,-0.007 -0.009,-0.007 -0.0103,-0.006 -0.0113,-0.006 -0.0103,-0.005 -0.0113,-0.005 -0.0122,-0.004 -0.0113,-0.004 -0.0122,-0.003 -0.0122,-0.002 -0.0122,-0.002 -0.0122,-9.4e-4 h -0.0122 c -0.13633,0 -0.24823,0.11189 -0.24823,0.24823 0,0.1354 0.1119,0.24823 0.24823,0.24823 0.1354,0 0.24729,-0.11283 0.24729,-0.24823 z"
         inkscape:connector-curvature="0"
         style="font-style:normal;font-variant:normal;font-weight:normal;font-stretch:normal;letter-spacing:normal;word-spacing:normal;text-anchor:start;fill:#000000;fill-opacity:1;fill-rule:evenodd;stroke:#000000;stroke-width:0;stroke-linecap:butt;stroke-linejoin:miter;stroke-miterlimit:10.43299961;stroke-dasharray:none;stroke-dashoffset:0;stroke-opacity:1" />
      <path
         id="path4934"
         d="m 129.87251,103.11289 0.003,-0.0122 0.003,-0.0141 0.005,-0.016 0.004,-0.0169 0.006,-0.0179 0.006,-0.0198 0.006,-0.0197 0.007,-0.0216 0.008,-0.0216 0.008,-0.0226 0.009,-0.0235 0.009,-0.0226 0.0104,-0.0235 0.0113,-0.0235 0.0122,-0.0235 0.0132,-0.0235 0.0141,-0.0226 0.0141,-0.0226 0.016,-0.0216 0.0169,-0.0207 0.0169,-0.0207 0.0188,-0.0188 0.0197,-0.0179 0.0207,-0.0169 0.0216,-0.015 0.0235,-0.0132 0.0113,-0.007 0.0122,-0.006 0.0122,-0.005 0.0132,-0.005 0.0132,-0.005 0.0132,-0.004 0.0132,-0.003 0.0141,-0.003 0.0141,-0.002 0.0151,-0.002 0.015,-9.4e-4 h 0.0151 c 0.0235,0 0.13633,0 0.23412,0.0611 -0.13164,0.0235 -0.22472,0.1401 -0.22472,0.25199 0,0.0752 0.0517,0.16455 0.17771,0.16455 0.10343,0 0.25293,-0.0846 0.25293,-0.27174 0,-0.24353 -0.27644,-0.30935 -0.43534,-0.30935 -0.27174,0 -0.43629,0.24823 -0.49176,0.35636 -0.1166,-0.30934 -0.37047,-0.35636 -0.50587,-0.35636 -0.48705,0 -0.75409,0.60459 -0.75409,0.72119 0,0.047 0.047,0.047 0.0564,0.047 0.0367,0 0.0508,-0.009 0.0602,-0.0508 0.15985,-0.49741 0.4692,-0.614 0.6281,-0.614 0.0884,0 0.25293,0.0423 0.25293,0.31311 0,0.14574 -0.0799,0.45979 -0.25293,1.11516 -0.0752,0.29054 -0.23883,0.48706 -0.44475,0.48706 -0.0282,0 -0.13633,0 -0.23412,-0.0611 0.11659,-0.0235 0.22002,-0.1213 0.22002,-0.25293 0,-0.126 -0.10343,-0.16361 -0.17395,-0.16361 -0.1401,0 -0.25669,0.12223 -0.25669,0.27174 0,0.21532 0.23318,0.30934 0.44004,0.30934 0.30841,0 0.47766,-0.32815 0.49082,-0.35636 0.0574,0.17395 0.22567,0.35636 0.50681,0.35636 0.48235,0 0.74939,-0.60459 0.74939,-0.72118 0,-0.047 -0.0423,-0.047 -0.0564,-0.047 -0.0423,0 -0.0517,0.0188 -0.0611,0.0517 -0.15421,0.50116 -0.47296,0.61306 -0.62246,0.61306 -0.18241,0 -0.25763,-0.14951 -0.25763,-0.30935 0,-0.10249 0.0282,-0.20592 0.0799,-0.41184 z"
         inkscape:connector-curvature="0"
         style="font-style:normal;font-variant:normal;font-weight:normal;font-stretch:normal;letter-spacing:normal;word-spacing:normal;text-anchor:start;fill:#000000;fill-opacity:1;fill-rule:evenodd;stroke:#000000;stroke-width:0;stroke-linecap:butt;stroke-linejoin:miter;stroke-miterlimit:10.43299961;stroke-dasharray:none;stroke-dashoffset:0;stroke-opacity:1" />
      <path
         id="path4936"
         d="m 133.98524,103.4495 h 1.30603 c 0.0658,0 0.15421,0 0.15421,-0.0931 0,-0.094 -0.0884,-0.094 -0.15421,-0.094 h -1.30603 v -1.31167 c 0,-0.0649 0,-0.15421 -0.094,-0.15421 -0.094,0 -0.094,0.0893 -0.094,0.15421 v 1.31167 h -1.31167 c -0.0658,0 -0.15421,0 -0.15421,0.094 0,0.0931 0.0884,0.0931 0.15421,0.0931 h 1.31167 v 1.31168 c 0,0.0658 0,0.1542 0.094,0.1542 0.094,0 0.094,-0.0884 0.094,-0.1542 z"
         inkscape:connector-curvature="0"
         style="font-style:normal;font-variant:normal;font-weight:normal;font-stretch:normal;letter-spacing:normal;word-spacing:normal;text-anchor:start;fill:#000000;fill-opacity:1;fill-rule:evenodd;stroke:#000000;stroke-width:0;stroke-linecap:butt;stroke-linejoin:miter;stroke-miterlimit:10.43299961;stroke-dasharray:none;stroke-dashoffset:0;stroke-opacity:1" />
      <path
         id="path4938"
         d="m 137.89017,101.32826 v -9.4e-4 0 -9.4e-4 -9.4e-4 l -9.4e-4,-9.4e-4 v -9.4e-4 -0.002 -0.002 -0.002 l -9.4e-4,-0.002 v -0.002 l -9.4e-4,-0.002 -9.4e-4,-0.003 -9.4e-4,-0.002 -9.4e-4,-0.003 -9.4e-4,-0.002 -9.4e-4,-0.002 -0.002,-0.003 -0.002,-0.002 -0.002,-0.003 -0.002,-0.002 -9.4e-4,-9.4e-4 -0.002,-9.4e-4 -9.4e-4,-9.4e-4 -9.5e-4,-9.4e-4 -0.002,-9.4e-4 -9.4e-4,-9.4e-4 -0.002,-9.4e-4 -0.002,-9.4e-4 -9.4e-4,-9.4e-4 -0.002,-9.4e-4 -0.002,-9.4e-4 h -0.002 l -0.002,-9.4e-4 -0.002,-9.4e-4 h -0.003 l -0.002,-9.4e-4 h -0.002 l -0.003,-9.4e-4 h -0.002 -0.003 l -0.003,-9.4e-4 h -0.002 -0.003 -0.003 c -0.10813,0 -0.44944,0.0376 -0.57168,0.047 -0.0376,0.005 -0.0893,0.009 -0.0893,0.094 0,0.0555 0.0423,0.0555 0.11283,0.0555 0.22472,0 0.23412,0.0329 0.23412,0.0799 0,0.0329 -0.0423,0.19181 -0.0658,0.29054 l -0.38363,1.52699 c -0.0564,0.23413 -0.0752,0.30841 -0.0752,0.47296 0,0.44474 0.24823,0.73528 0.59518,0.73528 v -0.10342 c -0.15984,0 -0.31405,-0.126 -0.31405,-0.47296 0,-0.0893 0,-0.17771 0.0752,-0.47295 l 0.10249,-0.43065 c 0.0282,-0.10343 0.0282,-0.11283 0.0705,-0.16454 0.22942,-0.30465 0.44004,-0.37423 0.56228,-0.37423 0.1683,0 0.29524,0.1401 0.29524,0.44005 0,0.27643 -0.15515,0.81521 -0.23883,0.99292 -0.15514,0.31405 -0.37046,0.48236 -0.55288,0.48236 v 0.10342 c 0.55288,0 1.12832,-0.69861 1.12832,-1.37279 0,-0.42594 -0.24823,-0.74939 -0.62245,-0.74939 -0.21532,0 -0.40714,0.13634 -0.54818,0.28114 z"
         inkscape:connector-curvature="0"
         style="font-style:normal;font-variant:normal;font-weight:normal;font-stretch:normal;letter-spacing:normal;word-spacing:normal;text-anchor:start;fill:#000000;fill-opacity:1;fill-rule:evenodd;stroke:#000000;stroke-width:0;stroke-linecap:butt;stroke-linejoin:miter;stroke-miterlimit:10.43299961;stroke-dasharray:none;stroke-dashoffset:0;stroke-opacity:1" />
      <path
         id="path4940"
         d="m 143.27884,102.99535 h 0.0132 0.0141 l 0.0141,-9.4e-4 h 0.007 0.007 l 0.007,-9.4e-4 0.008,-9.4e-4 0.007,-9.4e-4 0.007,-9.4e-4 0.006,-0.002 0.007,-9.4e-4 0.007,-0.002 0.006,-0.002 0.006,-0.003 0.006,-0.003 0.005,-0.003 0.006,-0.003 0.005,-0.004 0.004,-0.004 0.005,-0.005 0.003,-0.005 0.002,-0.003 0.002,-0.002 0.002,-0.003 9.4e-4,-0.003 0.002,-0.003 9.4e-4,-0.004 9.4e-4,-0.003 9.4e-4,-0.004 9.5e-4,-0.003 9.4e-4,-0.004 9.4e-4,-0.004 v -0.004 l 9.4e-4,-0.004 v -0.004 -0.005 -0.005 c 0,-0.0931 -0.0884,-0.0931 -0.15421,-0.0931 h -2.80575 c -0.0658,0 -0.15421,0 -0.15421,0.0931 0,0.094 0.0884,0.094 0.15891,0.094 z"
         inkscape:connector-curvature="0"
         style="font-style:normal;font-variant:normal;font-weight:normal;font-stretch:normal;letter-spacing:normal;word-spacing:normal;text-anchor:start;fill:#000000;fill-opacity:1;fill-rule:evenodd;stroke:#000000;stroke-width:0;stroke-linecap:butt;stroke-linejoin:miter;stroke-miterlimit:10.43299961;stroke-dasharray:none;stroke-dashoffset:0;stroke-opacity:1" />
      <path
         id="path4942"
         d="m 143.28354,103.90459 0.0122,-9.4e-4 h 0.0132 0.0132 l 0.007,-9.4e-4 h 0.007 l 0.007,-9.4e-4 0.007,-9.4e-4 0.007,-9.4e-4 0.007,-9.4e-4 0.006,-9.4e-4 0.007,-0.002 0.006,-0.002 0.006,-0.002 0.006,-0.002 0.006,-0.003 0.006,-0.003 0.005,-0.004 0.005,-0.004 0.004,-0.004 0.005,-0.004 0.002,-0.003 0.002,-0.003 9.4e-4,-0.002 0.002,-0.003 0.002,-0.003 9.4e-4,-0.003 0.002,-0.003 9.4e-4,-0.003 9.4e-4,-0.004 9.4e-4,-0.003 9.5e-4,-0.004 9.4e-4,-0.004 9.4e-4,-0.004 v -0.004 l 9.4e-4,-0.004 v -0.004 -0.005 -0.004 c 0,-0.094 -0.0884,-0.094 -0.15891,-0.094 h -2.79635 c -0.0705,0 -0.15891,0 -0.15891,0.094 0,0.094 0.0884,0.094 0.15421,0.094 z"
         inkscape:connector-curvature="0"
         style="font-style:normal;font-variant:normal;font-weight:normal;font-stretch:normal;letter-spacing:normal;word-spacing:normal;text-anchor:start;fill:#000000;fill-opacity:1;fill-rule:evenodd;stroke:#000000;stroke-width:0;stroke-linecap:butt;stroke-linejoin:miter;stroke-miterlimit:10.43299961;stroke-dasharray:none;stroke-dashoffset:0;stroke-opacity:1" />
      <path
         id="path4944"
         d="m 147.19881,103.02826 v -0.0705 l -9.4e-4,-0.0696 -0.002,-0.0705 -0.003,-0.0696 -0.005,-0.0705 -0.006,-0.0696 -0.007,-0.0696 -0.009,-0.0686 -0.0103,-0.0686 -0.0132,-0.0686 -0.0151,-0.0677 -0.0179,-0.0677 -0.0207,-0.0668 -0.0226,-0.0668 -0.0263,-0.0658 -0.0141,-0.0329 -0.0151,-0.0329 c -0.21532,-0.44944 -0.59895,-0.52467 -0.79641,-0.52467 -0.28019,0 -0.62245,0.12224 -0.81521,0.55758 -0.1495,0.32345 -0.17301,0.68828 -0.17301,1.06344 0,0.35166 0.0188,0.7729 0.21062,1.12926 0.20216,0.37893 0.54348,0.47296 0.7729,0.47296 v -0.10343 c -0.18241,0 -0.45885,-0.11753 -0.54347,-0.56698 -0.0508,-0.28114 -0.0508,-0.71178 -0.0508,-0.98822 0,-0.29995 0,-0.60835 0.0376,-0.86129 0.0884,-0.55757 0.44004,-0.59989 0.55663,-0.59989 0.15515,0 0.4645,0.0846 0.55288,0.54818 0.047,0.26233 0.047,0.61775 0.047,0.913 0,0.35166 0,0.67041 -0.0517,0.96941 -0.0705,0.44475 -0.33662,0.58579 -0.54818,0.58579 v 0 0.10343 c 0.25294,0 0.6093,-0.0987 0.81521,-0.54348 0.14951,-0.32345 0.17301,-0.68827 0.17301,-1.05874 z"
         inkscape:connector-curvature="0"
         style="font-style:normal;font-variant:normal;font-weight:normal;font-stretch:normal;letter-spacing:normal;word-spacing:normal;text-anchor:start;fill:#000000;fill-opacity:1;fill-rule:evenodd;stroke:#000000;stroke-width:0;stroke-linecap:butt;stroke-linejoin:miter;stroke-miterlimit:10.43299961;stroke-dasharray:none;stroke-dashoffset:0;stroke-opacity:1" />
    </g>
    <path
       id="path4761"
       d="m 140.13956,85.967324 0.002,-0.0094 0.002,-0.01034 0.003,-0.01034 0.003,-0.01128 0.003,-0.01128 0.003,-0.01128 0.006,-0.02257 0.006,-0.02351 0.006,-0.02351 0.006,-0.02351 0.006,-0.02257 0.003,-0.01128 0.003,-0.01128 0.002,-0.01034 0.003,-0.01034 0.003,-0.0094 0.002,-0.0094 0.002,-0.0094 0.002,-0.0085 0.002,-0.0075 9.4e-4,-0.0075 0.002,-0.0066 9.4e-4,-0.0056 9.4e-4,-0.0056 9.4e-4,-0.0047 v -0.0038 -0.0028 c 0,-0.08462 -0.0658,-0.126936 -0.1354,-0.126936 -0.0564,0 -0.14104,0.03761 -0.17395,0.131638 -0.0141,0.03197 -0.23413,0.927103 -0.26704,1.048397 -0.032,0.14104 -0.0423,0.224724 -0.0423,0.309348 0,0.05172 0,0.06112 0.005,0.08462 -0.10719,0.248231 -0.24823,0.393032 -0.43064,0.393032 -0.37423,0 -0.37423,-0.346019 -0.37423,-0.425941 0,-0.150443 0.0235,-0.332855 0.24353,-0.909238 0.0508,-0.1401 0.0799,-0.205919 0.0799,-0.299005 0,-0.21156 -0.15515,-0.38457 -0.38457,-0.38457 -0.44475,0 -0.61776,0.679814 -0.61776,0.721185 0,0.04701 0.0461,0.04701 0.0555,0.04701 0.047,0 0.0517,-0.0094 0.0752,-0.08462 0.12599,-0.435344 0.30935,-0.580145 0.47295,-0.580145 0.0423,0 0.11754,0.0047 0.11754,0.154204 0,0.117533 -0.0517,0.24823 -0.0846,0.328153 -0.20592,0.552877 -0.26233,0.768198 -0.26233,0.945908 0,0.425941 0.31405,0.590488 0.66477,0.590488 0.0799,0 0.29994,0 0.48705,-0.328153 0.12224,0.299945 0.44475,0.328153 0.58579,0.328153 0.35072,0 0.55758,-0.295244 0.67887,-0.576384 0.15985,-0.364823 0.30935,-0.992922 0.30935,-1.217645 0,-0.257633 -0.12693,-0.328154 -0.20592,-0.328154 -0.11753,0 -0.23412,0.122235 -0.23412,0.225665 0,0.06018 0.0282,0.08839 0.0696,0.125995 0.0526,0.05172 0.16924,0.173009 0.16924,0.397733 0,0.158905 -0.13539,0.618696 -0.25763,0.857524 -0.12223,0.24823 -0.28584,0.411837 -0.51526,0.411837 -0.22003,0 -0.34602,-0.1401 -0.34602,-0.407136 0,-0.131637 0.032,-0.276438 0.0508,-0.342257 z"
       inkscape:connector-curvature="0"
       style="font-style:normal;font-variant:normal;font-weight:normal;font-stretch:normal;letter-spacing:normal;word-spacing:normal;text-anchor:start;fill:#000000;fill-opacity:1;fill-rule:evenodd;stroke:#000000;stroke-width:0;stroke-linecap:butt;stroke-linejoin:miter;stroke-miterlimit:10.43299961;stroke-dasharray:none;stroke-dashoffset:0;stroke-opacity:1" />
    <path
       inkscape:connector-curvature="0"
       id="path1053"
       d="M 99.758351,77.304447 V 57.593319"
       style="fill:none;stroke:#000000;stroke-width:0.76499999;stroke-linecap:butt;stroke-linejoin:miter;stroke-miterlimit:4;stroke-dasharray:none;stroke-opacity:1;marker-end:url(#Arrow2Send)" />
    <path
       sodipodi:nodetypes="cc"
       style="fill:none;stroke:#000000;stroke-width:0.76499999;stroke-linecap:butt;stroke-linejoin:miter;stroke-miterlimit:4;stroke-dasharray:none;stroke-opacity:1;marker-end:url(#marker1459)"
       d="M 99.758351,77.304447 120.97648,53.278075"
       id="path1455"
       inkscape:connector-curvature="0" />
    <path
       inkscape:connector-curvature="0"
       id="path3123"
       d="M 99.758351,57.593319 120.97648,53.278075"
       style="fill:#000000;stroke:#000000;stroke-width:0.66500002;stroke-linecap:butt;stroke-linejoin:miter;stroke-miterlimit:4;stroke-dasharray:none;stroke-opacity:1;marker-end:url(#marker3127)"
       sodipodi:nodetypes="cc" />
    <path
       sodipodi:nodetypes="cc"
       style="fill:none;stroke:#000000;stroke-width:0.76499999;stroke-linecap:butt;stroke-linejoin:miter;stroke-miterlimit:4;stroke-dasharray:none;stroke-opacity:1;marker-end:url(#marker3619)"
       d="m 128.28937,92.471992 7.6812,-5.59125"
       id="path3615"
       inkscape:connector-curvature="0" />
    <g
       id="g5292"
       transform="matrix(0.4431885,0,0,0.4431885,78.965476,19.106588)">
      <g
         word-spacing="normal"
         letter-spacing="normal"
         font-size-adjust="none"
         font-stretch="normal"
         font-weight="normal"
         font-variant="normal"
         font-style="normal"
         stroke-miterlimit="10.433"
         xml:space="preserve"
         transform="matrix(0.3,0,0,-0.3,-52.5,222.75)"
         id="content"
         style="font-style:normal;font-variant:normal;font-weight:normal;font-stretch:normal;letter-spacing:normal;word-spacing:normal;text-anchor:start;fill:none;fill-opacity:1;fill-rule:evenodd;stroke:#000000;stroke-linecap:butt;stroke-linejoin:miter;stroke-miterlimit:10.43299961;stroke-dasharray:none;stroke-dashoffset:0;stroke-opacity:1"><path
           id="path5289"
           d="m 472.64,421.04 0.03,0.13 0.03,0.15 0.05,0.17 0.04,0.18 0.06,0.19 0.06,0.21 0.06,0.21 0.07,0.23 0.08,0.23 0.09,0.24 0.1,0.25 0.1,0.24 0.11,0.25 0.12,0.25 0.13,0.25 0.14,0.25 0.15,0.24 0.15,0.24 0.17,0.23 0.18,0.22 0.18,0.22 0.2,0.2 0.21,0.19 0.22,0.18 0.23,0.16 0.25,0.14 0.12,0.07 0.13,0.06 0.13,0.05 0.14,0.05 0.14,0.05 0.14,0.04 0.14,0.03 0.15,0.03 0.15,0.02 0.16,0.02 0.16,0.01 h 0.16 c 0.25,0 1.45,0 2.49,-0.65 -1.4,-0.25 -2.39,-1.49 -2.39,-2.68 0,-0.8 0.54,-1.75 1.89,-1.75 1.1,0 2.69,0.9 2.69,2.89 0,2.59 -2.94,3.29 -4.63,3.29 -2.89,0 -4.64,-2.64 -5.23,-3.79 -1.25,3.29 -3.94,3.79 -5.38,3.79 -5.18,0 -8.02,-6.43 -8.02,-7.67 0,-0.5 0.5,-0.5 0.6,-0.5 0.39,0 0.54,0.1 0.64,0.54 1.7,5.29 4.98,6.53 6.68,6.53 0.95,0 2.69,-0.45 2.69,-3.33 0,-1.55 -0.85,-4.89 -2.69,-11.86 -0.8,-3.09 -2.54,-5.18 -4.73,-5.18 -0.3,0 -1.45,0 -2.49,0.65 1.24,0.25 2.34,1.29 2.34,2.69 0,1.34 -1.1,1.74 -1.85,1.74 -1.49,0 -2.73,-1.3 -2.73,-2.89 0,-2.29 2.48,-3.29 4.68,-3.29 3.28,0 5.08,3.49 5.23,3.79 0.6,-1.85 2.39,-3.79 5.38,-3.79 5.13,0 7.97,6.43 7.97,7.67 0,0.5 -0.45,0.5 -0.6,0.5 -0.45,0 -0.55,-0.2 -0.65,-0.55 -1.64,-5.33 -5.03,-6.52 -6.62,-6.52 -1.95,0 -2.74,1.59 -2.74,3.29 0,1.09 0.29,2.19 0.85,4.38 z"
           inkscape:connector-curvature="0"
           style="fill:#000000;stroke-width:0" /></g>    </g>
  </g>
  <g
     transform="matrix(0.32909164,0,0,0.32909164,68.349368,34.310615)"
     id="g5556">
    <g
       style="font-style:normal;font-variant:normal;font-weight:normal;font-stretch:normal;letter-spacing:normal;word-spacing:normal;text-anchor:start;fill:none;fill-opacity:1;fill-rule:evenodd;stroke:#000000;stroke-linecap:butt;stroke-linejoin:miter;stroke-miterlimit:10.43299961;stroke-dasharray:none;stroke-dashoffset:0;stroke-opacity:1"
       id="g5554"
       transform="matrix(0.3,0,0,-0.3,-52.5,222.75)"
       xml:space="preserve"
       stroke-miterlimit="10.433"
       font-style="normal"
       font-variant="normal"
       font-weight="normal"
       font-stretch="normal"
       font-size-adjust="none"
       letter-spacing="normal"
       word-spacing="normal"><path
         style="fill:#000000;stroke-width:0"
         inkscape:connector-curvature="0"
         d="m 466.26,425.93 h 4.69 c 0.99,0 1.49,0 1.49,0.99 0,0.55 -0.5,0.55 -1.4,0.55 h -4.38 c 1.79,7.07 2.04,8.07 2.04,8.37 0,0.84 -0.59,1.34 -1.44,1.34 -0.15,0 -1.55,-0.05 -1.99,-1.79 l -1.95,-7.92 h -4.68 c -1,0 -1.5,0 -1.5,-0.95 0,-0.59 0.4,-0.59 1.4,-0.59 h 4.39 c -3.59,-14.15 -3.79,-15 -3.79,-15.89 0,-2.7 1.89,-4.59 4.58,-4.59 5.08,0 7.92,7.28 7.92,7.67 0,0.5 -0.4,0.5 -0.6,0.5 -0.45,0 -0.49,-0.15 -0.74,-0.69 -2.14,-5.19 -4.78,-6.38 -6.48,-6.38 -1.05,0 -1.54,0.65 -1.54,2.29 0,1.2 0.1,1.54 0.29,2.39 z"
         id="path5552" /></g>  </g>
  <g
     id="g5696"
     transform="matrix(0.26533435,0,0,0.26533435,82.056614,26.417131)">
    <g
       word-spacing="normal"
       letter-spacing="normal"
       font-size-adjust="none"
       font-stretch="normal"
       font-weight="normal"
       font-variant="normal"
       font-style="normal"
       stroke-miterlimit="10.433"
       xml:space="preserve"
       transform="matrix(0.3,0,0,-0.3,-52.5,222.75)"
       id="g5694"
       style="font-style:normal;font-variant:normal;font-weight:normal;font-stretch:normal;letter-spacing:normal;word-spacing:normal;text-anchor:start;fill:none;fill-opacity:1;fill-rule:evenodd;stroke:#000000;stroke-linecap:butt;stroke-linejoin:miter;stroke-miterlimit:10.43299961;stroke-dasharray:none;stroke-dashoffset:0;stroke-opacity:1"><path
         id="path5688"
         d="m 472.64,421.04 0.03,0.13 0.03,0.15 0.05,0.17 0.04,0.18 0.06,0.19 0.06,0.21 0.06,0.21 0.07,0.23 0.08,0.23 0.09,0.24 0.1,0.25 0.1,0.24 0.11,0.25 0.12,0.25 0.13,0.25 0.14,0.25 0.15,0.24 0.15,0.24 0.17,0.23 0.18,0.22 0.18,0.22 0.2,0.2 0.21,0.19 0.22,0.18 0.23,0.16 0.25,0.14 0.12,0.07 0.13,0.06 0.13,0.05 0.14,0.05 0.14,0.05 0.14,0.04 0.14,0.03 0.15,0.03 0.15,0.02 0.16,0.02 0.16,0.01 h 0.16 c 0.25,0 1.45,0 2.49,-0.65 -1.4,-0.25 -2.39,-1.49 -2.39,-2.68 0,-0.8 0.54,-1.75 1.89,-1.75 1.1,0 2.69,0.9 2.69,2.89 0,2.59 -2.94,3.29 -4.63,3.29 -2.89,0 -4.64,-2.64 -5.23,-3.79 -1.25,3.29 -3.94,3.79 -5.38,3.79 -5.18,0 -8.02,-6.43 -8.02,-7.67 0,-0.5 0.5,-0.5 0.6,-0.5 0.39,0 0.54,0.1 0.64,0.54 1.7,5.29 4.98,6.53 6.68,6.53 0.95,0 2.69,-0.45 2.69,-3.33 0,-1.55 -0.85,-4.89 -2.69,-11.86 -0.8,-3.09 -2.54,-5.18 -4.73,-5.18 -0.3,0 -1.45,0 -2.49,0.65 1.24,0.25 2.34,1.29 2.34,2.69 0,1.34 -1.1,1.74 -1.85,1.74 -1.49,0 -2.73,-1.3 -2.73,-2.89 0,-2.29 2.48,-3.29 4.68,-3.29 3.28,0 5.08,3.49 5.23,3.79 0.6,-1.85 2.39,-3.79 5.38,-3.79 5.13,0 7.97,6.43 7.97,7.67 0,0.5 -0.45,0.5 -0.6,0.5 -0.45,0 -0.55,-0.2 -0.65,-0.55 -1.64,-5.33 -5.03,-6.52 -6.62,-6.52 -1.95,0 -2.74,1.59 -2.74,3.29 0,1.09 0.29,2.19 0.85,4.38 z"
         inkscape:connector-curvature="0"
         style="fill:#000000;stroke-width:0" /><path
         id="path5690"
         d="m 527.83,417.46 h 0.16 0.16 0.15 l 0.08,0.01 h 0.08 l 0.07,0.01 0.08,0.01 0.07,0.01 0.07,0.01 0.07,0.01 0.07,0.02 0.06,0.02 0.07,0.02 0.06,0.03 0.05,0.02 0.06,0.04 0.05,0.03 0.05,0.04 0.05,0.04 0.04,0.05 0.04,0.05 0.01,0.02 0.02,0.03 0.02,0.03 0.01,0.03 0.02,0.03 0.01,0.04 0.01,0.03 0.01,0.03 0.01,0.04 0.01,0.04 v 0.04 l 0.01,0.04 v 0.04 l 0.01,0.04 v 0.05 0.04 c 0,1 -0.9,1 -1.74,1 h -26.95 c -0.85,0 -1.75,0 -1.75,-1 0,-0.99 0.9,-0.99 1.75,-0.99 z"
         inkscape:connector-curvature="0"
         style="fill:#000000;stroke-width:0" /><path
         id="path5692"
         d="m 555.26,425.93 h 4.69 c 0.99,0 1.49,0 1.49,0.99 0,0.55 -0.5,0.55 -1.4,0.55 h -4.38 c 1.79,7.07 2.04,8.07 2.04,8.37 0,0.84 -0.6,1.34 -1.44,1.34 -0.15,0 -1.54,-0.05 -1.99,-1.79 l -1.95,-7.92 h -4.68 c -0.99,0 -1.49,0 -1.49,-0.95 0,-0.59 0.39,-0.59 1.39,-0.59 h 4.39 c -3.59,-14.15 -3.79,-15 -3.79,-15.89 0,-2.7 1.89,-4.59 4.58,-4.59 5.08,0 7.92,7.28 7.92,7.67 0,0.5 -0.4,0.5 -0.6,0.5 -0.45,0 -0.49,-0.15 -0.74,-0.69 -2.14,-5.19 -4.78,-6.38 -6.48,-6.38 -1.05,0 -1.54,0.65 -1.54,2.29 0,1.2 0.1,1.54 0.29,2.39 z"
         inkscape:connector-curvature="0"
         style="fill:#000000;stroke-width:0" /></g>  </g>
  <g
     id="g1008"
     transform="matrix(0.46181788,0,0,0.46181788,99.793842,31.653487)">
    <g
       id="g1006"
       transform="matrix(0.3,0,0,-0.3,-52.5,222.75)"
       xml:space="preserve"
       stroke-miterlimit="10.433"
       font-style="normal"
       font-variant="normal"
       font-weight="normal"
       font-stretch="normal"
       font-size-adjust="none"
       letter-spacing="normal"
       word-spacing="normal"
       style="font-style:normal;font-variant:normal;font-weight:normal;font-stretch:normal;letter-spacing:normal;word-spacing:normal;text-anchor:start;fill:none;fill-opacity:1;fill-rule:evenodd;stroke:#000000;stroke-linecap:butt;stroke-linejoin:miter;stroke-miterlimit:10.43299961;stroke-dasharray:none;stroke-dashoffset:0;stroke-opacity:1"><path
         d="m 472.64,421.04 0.03,0.13 0.03,0.15 0.05,0.17 0.04,0.18 0.06,0.19 0.06,0.21 0.06,0.21 0.07,0.23 0.08,0.23 0.09,0.24 0.1,0.25 0.1,0.24 0.11,0.25 0.12,0.25 0.13,0.25 0.14,0.25 0.15,0.24 0.15,0.24 0.17,0.23 0.18,0.22 0.18,0.22 0.2,0.2 0.21,0.19 0.22,0.18 0.23,0.16 0.25,0.14 0.12,0.07 0.13,0.06 0.13,0.05 0.14,0.05 0.14,0.05 0.14,0.04 0.14,0.03 0.15,0.03 0.15,0.02 0.16,0.02 0.16,0.01 h 0.16 c 0.25,0 1.45,0 2.49,-0.65 -1.4,-0.25 -2.39,-1.49 -2.39,-2.68 0,-0.8 0.54,-1.75 1.89,-1.75 1.1,0 2.69,0.9 2.69,2.89 0,2.59 -2.94,3.29 -4.63,3.29 -2.89,0 -4.64,-2.64 -5.23,-3.79 -1.25,3.29 -3.94,3.79 -5.38,3.79 -5.18,0 -8.02,-6.43 -8.02,-7.67 0,-0.5 0.5,-0.5 0.6,-0.5 0.39,0 0.54,0.1 0.64,0.54 1.7,5.29 4.98,6.53 6.68,6.53 0.95,0 2.69,-0.45 2.69,-3.33 0,-1.55 -0.85,-4.89 -2.69,-11.86 -0.8,-3.09 -2.54,-5.18 -4.73,-5.18 -0.3,0 -1.45,0 -2.49,0.65 1.24,0.25 2.34,1.29 2.34,2.69 0,1.34 -1.1,1.74 -1.85,1.74 -1.49,0 -2.73,-1.3 -2.73,-2.89 0,-2.29 2.48,-3.29 4.68,-3.29 3.28,0 5.08,3.49 5.23,3.79 0.6,-1.85 2.39,-3.79 5.38,-3.79 5.13,0 7.97,6.43 7.97,7.67 0,0.5 -0.45,0.5 -0.6,0.5 -0.45,0 -0.55,-0.2 -0.65,-0.55 -1.64,-5.33 -5.03,-6.52 -6.62,-6.52 -1.95,0 -2.74,1.59 -2.74,3.29 0,1.09 0.29,2.19 0.85,4.38 z"
         id="path1002"
         inkscape:connector-curvature="0"
         style="fill:#000000;stroke-width:0" /><path
         d="m 495.68,421.18 v 0.04 0.04 0.04 0.04 0.04 0.04 0.03 0.04 l -0.01,0.03 v 0.03 0.04 0.03 l -0.01,0.02 v 0.03 0.03 l -0.01,0.03 v 0.02 0.02 l -0.02,0.05 -0.01,0.04 -0.01,0.04 -0.02,0.03 -0.02,0.03 -0.02,0.03 -0.03,0.03 -0.02,0.02 -0.03,0.02 -0.04,0.02 -0.03,0.01 -0.04,0.01 -0.05,0.02 h -0.05 l -0.02,0.01 h -0.03 l -0.03,0.01 h -0.02 -0.03 -0.03 -0.04 l -0.03,0.01 h -0.03 -0.04 -0.03 -0.04 -0.04 -0.04 -0.04 -0.04 -0.05 -0.04 c -2.24,-2.19 -5.41,-2.23 -6.84,-2.23 v -1.25 c 0.84,0 3.14,0 5.06,0.97 v -17.78 c 0,-1.15 0,-1.61 -3.49,-1.61 h -1.33 V 399 h 12.45 v 1.25 h -1.32 c -3.49,0 -3.49,0.46 -3.49,1.61 z"
         id="path1004"
         inkscape:connector-curvature="0"
         style="fill:#000000;stroke-width:0" /></g>  </g>
  <g
     id="g1164"
     transform="matrix(0.41671022,0,0,0.41671022,62.641283,-3.5385161)">
    <g
       word-spacing="normal"
       letter-spacing="normal"
       font-size-adjust="none"
       font-stretch="normal"
       font-weight="normal"
       font-variant="normal"
       font-style="normal"
       stroke-miterlimit="10.433"
       xml:space="preserve"
       transform="matrix(0.3,0,0,-0.3,-52.5,222.75)"
       id="g1162"
       style="font-style:normal;font-variant:normal;font-weight:normal;font-stretch:normal;letter-spacing:normal;word-spacing:normal;text-anchor:start;fill:none;fill-opacity:1;fill-rule:evenodd;stroke:#000000;stroke-linecap:butt;stroke-linejoin:miter;stroke-miterlimit:10.43299961;stroke-dasharray:none;stroke-dashoffset:0;stroke-opacity:1"><path
         id="path1158"
         d="m 472.64,421.04 0.03,0.13 0.03,0.15 0.05,0.17 0.04,0.18 0.06,0.19 0.06,0.21 0.06,0.21 0.07,0.23 0.08,0.23 0.09,0.24 0.1,0.25 0.1,0.24 0.11,0.25 0.12,0.25 0.13,0.25 0.14,0.25 0.15,0.24 0.15,0.24 0.17,0.23 0.18,0.22 0.18,0.22 0.2,0.2 0.21,0.19 0.22,0.18 0.23,0.16 0.25,0.14 0.12,0.07 0.13,0.06 0.13,0.05 0.14,0.05 0.14,0.05 0.14,0.04 0.14,0.03 0.15,0.03 0.15,0.02 0.16,0.02 0.16,0.01 h 0.16 c 0.25,0 1.45,0 2.49,-0.65 -1.4,-0.25 -2.39,-1.49 -2.39,-2.68 0,-0.8 0.54,-1.75 1.89,-1.75 1.1,0 2.69,0.9 2.69,2.89 0,2.59 -2.94,3.29 -4.63,3.29 -2.89,0 -4.64,-2.64 -5.23,-3.79 -1.25,3.29 -3.94,3.79 -5.38,3.79 -5.18,0 -8.02,-6.43 -8.02,-7.67 0,-0.5 0.5,-0.5 0.6,-0.5 0.39,0 0.54,0.1 0.64,0.54 1.7,5.29 4.98,6.53 6.68,6.53 0.95,0 2.69,-0.45 2.69,-3.33 0,-1.55 -0.85,-4.89 -2.69,-11.86 -0.8,-3.09 -2.54,-5.18 -4.73,-5.18 -0.3,0 -1.45,0 -2.49,0.65 1.24,0.25 2.34,1.29 2.34,2.69 0,1.34 -1.1,1.74 -1.85,1.74 -1.49,0 -2.73,-1.3 -2.73,-2.89 0,-2.29 2.48,-3.29 4.68,-3.29 3.28,0 5.08,3.49 5.23,3.79 0.6,-1.85 2.39,-3.79 5.38,-3.79 5.13,0 7.97,6.43 7.97,7.67 0,0.5 -0.45,0.5 -0.6,0.5 -0.45,0 -0.55,-0.2 -0.65,-0.55 -1.64,-5.33 -5.03,-6.52 -6.62,-6.52 -1.95,0 -2.74,1.59 -2.74,3.29 0,1.09 0.29,2.19 0.85,4.38 z"
         inkscape:connector-curvature="0"
         style="fill:#000000;stroke-width:0" /><path
         id="path1160"
         d="m 501.61,405.35 h -1.19 c -0.1,-0.77 -0.45,-2.83 -0.9,-3.18 -0.28,-0.21 -2.97,-0.21 -3.45,-0.21 h -6.42 c 3.66,3.25 4.88,4.22 6.97,5.86 2.58,2.06 4.99,4.22 4.99,7.54 0,4.21 -3.7,6.79 -8.16,6.79 -4.33,0 -7.25,-3.03 -7.25,-6.24 0,-1.78 1.5,-1.95 1.84,-1.95 0.84,0 1.85,0.59 1.85,1.85 0,0.62 -0.24,1.85 -2.05,1.85 1.08,2.47 3.45,3.24 5.09,3.24 3.48,0 5.3,-2.72 5.3,-5.54 0,-3.04 -2.16,-5.45 -3.28,-6.7 l -8.4,-8.3 c -0.35,-0.31 -0.35,-0.38 -0.35,-1.36 h 14.36 z"
         inkscape:connector-curvature="0"
         style="fill:#000000;stroke-width:0" /></g>  </g>
</svg>
